<mxfile host="app.diagrams.net" agent="Mozilla/5.0 (Windows NT 10.0; Win64; x64) AppleWebKit/537.36 (KHTML, like Gecko) Chrome/134.0.0.0 Safari/537.36" version="26.2.13">
  <diagram name="Trang-1" id="-_ZwSjO3pbOBle6l9s65">
    <mxGraphModel dx="1383" dy="1611" grid="0" gridSize="10" guides="1" tooltips="1" connect="1" arrows="1" fold="1" page="0" pageScale="1" pageWidth="827" pageHeight="1169" math="0" shadow="0">
      <root>
        <mxCell id="0" />
        <mxCell id="1" parent="0" />
        <mxCell id="8KQjZqrrUaEt6gTKp9Km-1" value="Yêu cầu&lt;div&gt;thay đổi&lt;/div&gt;" style="shape=step;perimeter=stepPerimeter;whiteSpace=wrap;html=1;fixedSize=1;" vertex="1" parent="1">
          <mxGeometry x="183" y="-433" width="120" height="80" as="geometry" />
        </mxCell>
        <mxCell id="8KQjZqrrUaEt6gTKp9Km-2" value="Kiểm tra&lt;div&gt;danh mục&lt;/div&gt;" style="shape=step;perimeter=stepPerimeter;whiteSpace=wrap;html=1;fixedSize=1;" vertex="1" parent="1">
          <mxGeometry x="292" y="-433" width="120" height="80" as="geometry" />
        </mxCell>
        <mxCell id="8KQjZqrrUaEt6gTKp9Km-4" value="Kiểm tra&lt;div&gt;quy cách&lt;/div&gt;&lt;div&gt;tiêu chuẩn&lt;/div&gt;" style="shape=step;perimeter=stepPerimeter;whiteSpace=wrap;html=1;fixedSize=1;" vertex="1" parent="1">
          <mxGeometry x="402" y="-433" width="120" height="80" as="geometry" />
        </mxCell>
        <mxCell id="8KQjZqrrUaEt6gTKp9Km-6" value="Chỉn sửa&lt;div&gt;phê duyệt&lt;/div&gt;" style="shape=step;perimeter=stepPerimeter;whiteSpace=wrap;html=1;fixedSize=1;" vertex="1" parent="1">
          <mxGeometry x="511" y="-433" width="120" height="80" as="geometry" />
        </mxCell>
        <mxCell id="8KQjZqrrUaEt6gTKp9Km-9" value="Phê duyệt" style="shape=step;perimeter=stepPerimeter;whiteSpace=wrap;html=1;fixedSize=1;" vertex="1" parent="1">
          <mxGeometry x="619" y="-433" width="120" height="80" as="geometry" />
        </mxCell>
        <mxCell id="8KQjZqrrUaEt6gTKp9Km-11" value="&lt;b&gt;Bộ phận&lt;/b&gt;&lt;div&gt;&lt;b&gt;kinh doanh&lt;/b&gt;&lt;/div&gt;" style="shape=offPageConnector;whiteSpace=wrap;html=1;" vertex="1" parent="1">
          <mxGeometry x="183" y="-523" width="80" height="80" as="geometry" />
        </mxCell>
        <mxCell id="8KQjZqrrUaEt6gTKp9Km-12" value="&lt;b&gt;Quản lý&lt;/b&gt;&lt;div&gt;&lt;b&gt;sản phẩm&lt;/b&gt;&lt;/div&gt;" style="shape=offPageConnector;whiteSpace=wrap;html=1;" vertex="1" parent="1">
          <mxGeometry x="292" y="-523" width="80" height="80" as="geometry" />
        </mxCell>
        <mxCell id="8KQjZqrrUaEt6gTKp9Km-14" value="&lt;b&gt;IT&lt;/b&gt;" style="shape=offPageConnector;whiteSpace=wrap;html=1;" vertex="1" parent="1">
          <mxGeometry x="402" y="-523" width="80" height="80" as="geometry" />
        </mxCell>
        <mxCell id="8KQjZqrrUaEt6gTKp9Km-16" value="&lt;b&gt;Ban giám đốc&lt;/b&gt;" style="shape=offPageConnector;whiteSpace=wrap;html=1;" vertex="1" parent="1">
          <mxGeometry x="511" y="-523" width="80" height="80" as="geometry" />
        </mxCell>
        <mxCell id="8KQjZqrrUaEt6gTKp9Km-18" value="&lt;b&gt;Ban giám đốc&lt;/b&gt;" style="shape=offPageConnector;whiteSpace=wrap;html=1;" vertex="1" parent="1">
          <mxGeometry x="619" y="-523" width="80" height="80" as="geometry" />
        </mxCell>
        <mxCell id="8KQjZqrrUaEt6gTKp9Km-20" value="theo dõi&lt;div&gt;Báo cáo&lt;/div&gt;" style="shape=step;perimeter=stepPerimeter;whiteSpace=wrap;html=1;fixedSize=1;" vertex="1" parent="1">
          <mxGeometry x="727" y="-433" width="120" height="80" as="geometry" />
        </mxCell>
        <mxCell id="8KQjZqrrUaEt6gTKp9Km-22" value="&lt;b&gt;Bộ phận&lt;/b&gt;&lt;div&gt;&lt;b&gt;kinh doanh&lt;/b&gt;&lt;/div&gt;" style="shape=offPageConnector;whiteSpace=wrap;html=1;" vertex="1" parent="1">
          <mxGeometry x="727" y="-523" width="80" height="80" as="geometry" />
        </mxCell>
        <mxCell id="8KQjZqrrUaEt6gTKp9Km-24" value="Tính&amp;nbsp;&lt;span style=&quot;background-color: transparent; color: light-dark(rgb(0, 0, 0), rgb(255, 255, 255));&quot;&gt;hiệu quả&lt;/span&gt;&lt;div&gt;điều chỉnh&lt;/div&gt;" style="shape=step;perimeter=stepPerimeter;whiteSpace=wrap;html=1;fixedSize=1;" vertex="1" parent="1">
          <mxGeometry x="836" y="-433" width="120" height="80" as="geometry" />
        </mxCell>
        <mxCell id="8KQjZqrrUaEt6gTKp9Km-26" value="&lt;b&gt;Kiểm toán&lt;/b&gt;&lt;div&gt;&lt;b&gt;nội bộ&lt;/b&gt;&lt;/div&gt;" style="shape=offPageConnector;whiteSpace=wrap;html=1;" vertex="1" parent="1">
          <mxGeometry x="836" y="-523" width="80" height="80" as="geometry" />
        </mxCell>
        <mxCell id="8KQjZqrrUaEt6gTKp9Km-28" value="&lt;b&gt;&lt;font style=&quot;font-size: 14px;&quot;&gt;Quy trình quản lý danh mục sản phẩm ĐMX&lt;/font&gt;&lt;/b&gt;" style="rounded=0;whiteSpace=wrap;html=1;" vertex="1" parent="1">
          <mxGeometry x="404" y="-597" width="295" height="60" as="geometry" />
        </mxCell>
      </root>
    </mxGraphModel>
  </diagram>
</mxfile>
